<?xml version="1.0" encoding="utf-8"?>
<!-- Generator: Adobe Illustrator 15.0.0, SVG Export Plug-In . SVG Version: 6.00 Build 0)  -->
<!DOCTYPE svg PUBLIC "-//W3C//DTD SVG 1.0//EN" "http://www.w3.org/TR/2001/REC-SVG-20010904/DTD/svg10.dtd">
<svg version="1.0" id="Layer_1" xmlns="http://www.w3.org/2000/svg" xmlns:xlink="http://www.w3.org/1999/xlink" x="0px" y="0px"
	 width="209.117px" height="98.789px" viewBox="0 0 209.117 98.789" style="enable-background:new 0 0 209.117 98.789;"
	 xml:space="preserve">
<style type="text/css">
<![CDATA[
	.st0{fill-rule:evenodd;clip-rule:evenodd;fill:#FFF200;}
	.st1{fill:#034EA2;}
	.st2{fill-rule:evenodd;clip-rule:evenodd;fill:url(#SVGID_1_);}
	.st3{fill-rule:evenodd;clip-rule:evenodd;fill:#034EA2;}
]]>
</style>
<g>
	<g>
		<g>
			<path class="st1" d="M0.614,95.446V84.764h6.475v1.199H2.285v3.3h4.66v1.195h-4.66v3.785h4.867v1.204H0.614z"/>
			<path class="st1" d="M13.433,95.446v-0.639c-1.103,0.559-1.969,0.822-2.645,0.822c-0.812,0-1.376-0.277-1.709-0.753
				c-0.318-0.464-0.386-0.915-0.386-2.004v-5h1.569v4.615c0,1.045,0,1.775,1.155,1.775c0.562,0,1.252-0.124,1.937-0.365v-6.024
				h1.568v7.575H13.433z"/>
			<path class="st1" d="M20.615,89.15c-0.675,0-1.213,0.093-1.908,0.402v5.894h-1.573v-7.575h1.495v0.719
				c0.799-0.595,1.427-0.836,2.146-0.836c0.161,0,0.338,0.015,0.338,0.015v1.396C20.876,89.136,20.763,89.15,20.615,89.15z"/>
			<path class="st1" d="M25.146,95.598c-2.227,0-3.509-1.447-3.509-3.946c0-2.455,1.318-3.962,3.509-3.962
				c2.262,0,3.514,1.42,3.514,3.962C28.661,94.186,27.389,95.598,25.146,95.598z M25.146,88.881c-1.249,0-1.841,0.865-1.841,2.755
				c0,1.97,0.592,2.776,1.861,2.776c1.276,0,1.823-0.806,1.823-2.746C26.99,89.724,26.465,88.881,25.146,88.881z"/>
			<path class="st1" d="M34.222,95.63c-0.816,0-1.59-0.473-2.259-0.87v3.898h-1.572V87.872h1.494v0.671
				c0.893-0.494,1.791-0.854,2.544-0.854c1.602,0,2.562,1.477,2.562,3.93C36.992,94.035,35.889,95.63,34.222,95.63z M33.754,89.042
				c-0.429,0-0.863,0.108-1.791,0.432v4.359c0.943,0.338,1.278,0.429,1.745,0.429c1.057,0,1.621-0.865,1.621-2.562
				C35.329,89.877,34.802,89.042,33.754,89.042z"/>
			<path class="st1" d="M39.913,91.858v0.259c0,1.521,0.638,2.212,1.826,2.212c0.688,0,1.309-0.126,2.544-0.53l0.292,0.937
				C43,95.415,42.232,95.63,41.327,95.63c-1.865,0-3.084-1.387-3.084-3.718c0-2.553,1.25-4.223,3.351-4.223
				c2.037,0,3.062,1.238,3.062,3.823v0.346H39.913z M41.724,88.795c-1.029,0-1.639,0.739-1.761,2.152l3.201-0.133
				C43.135,89.438,42.687,88.795,41.724,88.795z"/>
			<path class="st1" d="M50.152,95.446V94.76c-0.961,0.559-1.643,0.87-2.318,0.87c-1.061,0-1.975-0.808-1.975-2.376
				c0-0.977,0.377-1.569,0.989-1.918c0.728-0.422,1.859-0.483,3.239-0.483v-0.255c0-1.159,0-1.625-1.358-1.625
				c-0.56,0-1.273,0.081-2.231,0.256l-0.159-0.995c1.25-0.362,2.276-0.545,3.095-0.545c0.895,0,1.471,0.227,1.813,0.712
				c0.298,0.432,0.379,0.929,0.379,2.337v4.708H50.152z M50.088,91.765c-2.115,0.147-2.659,0.45-2.659,1.441
				c0,0.804,0.405,1.185,0.991,1.185c0.608,0,1.668-0.444,1.668-0.444V91.765z"/>
			<path class="st1" d="M58.411,95.446v-4.609c0-1.044,0-1.785-1.157-1.785c-0.56,0-1.25,0.128-1.936,0.373v6.021h-1.573v-7.575
				h1.487v0.64c1.107-0.563,1.957-0.822,2.675-0.822c0.768,0,1.364,0.296,1.704,0.789c0.3,0.449,0.371,0.813,0.371,2.02v4.949
				H58.411z"/>
			<path class="st1" d="M67.946,85.962v3.3h4.551v1.195h-4.551v4.988h-1.668V84.764h6.333v1.199H67.946z"/>
			<path class="st1" d="M76.979,95.598c-2.228,0-3.51-1.447-3.51-3.946c0-2.455,1.321-3.962,3.51-3.962
				c2.261,0,3.512,1.42,3.512,3.962C80.491,94.186,79.225,95.598,76.979,95.598z M76.979,88.881c-1.244,0-1.838,0.865-1.838,2.755
				c0,1.97,0.594,2.776,1.856,2.776c1.281,0,1.823-0.806,1.823-2.746C78.819,89.724,78.296,88.881,76.979,88.881z"/>
			<path class="st1" d="M85.253,95.598c-2.231,0-3.511-1.447-3.511-3.946c0-2.455,1.313-3.962,3.511-3.962
				c2.257,0,3.505,1.42,3.505,3.962C88.758,94.186,87.497,95.598,85.253,95.598z M85.253,88.881c-1.253,0-1.85,0.865-1.85,2.755
				c0,1.97,0.597,2.776,1.865,2.776c1.281,0,1.83-0.806,1.83-2.746C87.098,89.724,86.566,88.881,85.253,88.881z"/>
			<path class="st1" d="M95.128,95.446V94.76c-0.904,0.515-1.763,0.87-2.521,0.87c-1.633,0-2.592-1.492-2.592-3.945
				c0-2.422,1.099-3.996,2.771-3.996c0.815,0,1.588,0.436,2.257,0.833V84.07h1.573v11.376H95.128z M95.043,89.474
				c-0.96-0.338-1.264-0.421-1.731-0.421c-1.053,0-1.632,0.862-1.632,2.566c0,1.828,0.53,2.658,1.573,2.658
				c0.427,0,0.863-0.092,1.791-0.445V89.474z"/>
			<path class="st1" d="M105.333,95.582c-1.009,0-1.904-0.167-3.174-0.517l0.307-1.205c1.053,0.261,1.941,0.401,2.711,0.401
				c1.215,0,2.323-0.605,2.323-1.729c0-0.736-0.24-1.089-1.22-1.456c-1.846-0.691-4.009-0.943-4.009-3.388
				c0-1.886,1.336-3.035,3.436-3.035c0.864,0,1.81,0.14,2.995,0.453l-0.258,1.174c-0.782-0.159-1.836-0.34-2.543-0.34
				c-1.06,0-1.958,0.537-1.958,1.62c0,0.887,0.317,1.161,2.032,1.635c2.263,0.628,3.191,1.262,3.191,3.095
				C109.165,94.347,107.694,95.582,105.333,95.582z"/>
			<path class="st1" d="M114.615,95.446V94.76c-0.963,0.559-1.649,0.87-2.322,0.87c-1.055,0-1.974-0.808-1.974-2.376
				c0-0.977,0.388-1.569,0.993-1.918c0.726-0.422,1.866-0.483,3.236-0.483v-0.255c0-1.159,0-1.625-1.357-1.625
				c-0.562,0-1.274,0.081-2.232,0.256l-0.159-0.995c1.254-0.362,2.274-0.545,3.098-0.545c0.899,0,1.47,0.227,1.808,0.712
				c0.305,0.432,0.381,0.929,0.381,2.337v4.708H114.615z M114.548,91.765c-2.105,0.147-2.655,0.45-2.655,1.441
				c0,0.804,0.4,1.185,0.995,1.185c0.605,0,1.661-0.444,1.661-0.444V91.765z"/>
			<path class="st1" d="M122.565,85.107c-0.146-0.028-0.657-0.089-1.311-0.089c-0.818,0-1.029,0.315-1.029,1.392v1.461h2.112v1.077
				h-2.112v6.498h-1.558v-6.498h-1.327v-0.917l1.327-0.181V86.6c0-1.118,0.087-1.52,0.369-1.934
				c0.372-0.543,0.947-0.819,1.751-0.819c0.8,0,1.703,0.224,1.943,0.289L122.565,85.107z"/>
			<path class="st1" d="M124.438,91.858v0.259c0,1.521,0.642,2.212,1.832,2.212c0.686,0,1.309-0.126,2.547-0.53l0.285,0.937
				c-1.572,0.678-2.333,0.893-3.248,0.893c-1.862,0-3.087-1.387-3.087-3.718c0-2.553,1.259-4.223,3.35-4.223
				c2.042,0,3.064,1.238,3.064,3.823v0.346H124.438z M126.251,88.795c-1.031,0-1.633,0.739-1.762,2.152l3.207-0.133
				C127.665,89.438,127.213,88.795,126.251,88.795z"/>
			<path class="st1" d="M132.917,95.63c-0.736,0-1.283-0.311-1.553-0.837c-0.175-0.333-0.227-0.723-0.227-1.744v-4.101h-1.283
				v-0.871l1.283-0.162v-2.094h1.575v2.05h2.083v1.077h-2.083v3.646c0,1.284,0.018,1.318,0.126,1.512
				c0.113,0.192,0.335,0.283,0.671,0.283c0.373,0,0.722-0.061,1.335-0.22l0.234,0.96C134.167,95.479,133.542,95.63,132.917,95.63z"
				/>
			<path class="st1" d="M139.477,96.398c-0.719,1.954-1.2,2.391-2.616,2.391c-0.355,0-0.638-0.024-1.157-0.115l0.113-0.994
				c0.293,0.037,0.472,0.037,0.647,0.037c1.037,0,1.103-0.116,1.756-1.704l0.267-0.624l-3.104-7.517h1.732l2.162,5.734l1.927-5.734
				h1.425L139.477,96.398z"/>
			<path class="st1" d="M154.585,95.446l-0.939-2.704h-4.41l-0.927,2.704h-1.508l3.769-10.683h1.906l3.876,10.683H154.585z
				 M151.4,86.123l-1.778,5.45h3.603L151.4,86.123z"/>
			<path class="st1" d="M162.197,95.446v-0.639c-1.101,0.559-1.963,0.822-2.636,0.822c-0.821,0-1.382-0.277-1.717-0.753
				c-0.322-0.464-0.388-0.915-0.388-2.004v-5h1.571v4.615c0,1.045,0,1.775,1.154,1.775c0.558,0,1.249-0.124,1.942-0.365v-6.024
				h1.568v7.575H162.197z"/>
			<path class="st1" d="M167.95,95.63c-0.734,0-1.274-0.311-1.546-0.837c-0.182-0.333-0.228-0.723-0.228-1.744v-4.101h-1.281v-0.871
				l1.281-0.162v-2.094h1.569v2.05h2.085v1.077h-2.085v3.646c0,1.284,0.02,1.318,0.133,1.512c0.113,0.192,0.335,0.283,0.671,0.283
				c0.37,0,0.719-0.061,1.333-0.22l0.232,0.96C169.208,95.479,168.58,95.63,167.95,95.63z"/>
			<path class="st1" d="M176.135,95.446v-4.609c0-1.044,0-1.785-1.159-1.785c-0.558,0-1.251,0.128-1.942,0.373v6.021h-1.565V84.07
				h1.565v4.408c1.044-0.515,1.882-0.789,2.604-0.789c0.767,0,1.357,0.296,1.693,0.789c0.307,0.449,0.37,0.813,0.37,2.02v4.949
				H176.135z"/>
			<path class="st1" d="M182.846,95.598c-2.227,0-3.512-1.447-3.512-3.946c0-2.455,1.32-3.962,3.512-3.962
				c2.259,0,3.513,1.42,3.513,3.962C186.359,94.186,185.087,95.598,182.846,95.598z M182.846,88.881
				c-1.25,0-1.839,0.865-1.839,2.755c0,1.97,0.589,2.776,1.856,2.776c1.284,0,1.828-0.806,1.828-2.746
				C184.69,89.724,184.159,88.881,182.846,88.881z"/>
			<path class="st1" d="M191.565,89.15c-0.675,0-1.215,0.093-1.908,0.402v5.894h-1.569v-7.575h1.494v0.719
				c0.793-0.595,1.426-0.836,2.145-0.836c0.156,0,0.338,0.015,0.338,0.015v1.396C191.825,89.136,191.713,89.15,191.565,89.15z"/>
			<path class="st1" d="M194.064,86.396c-0.529,0-0.962-0.417-0.962-0.95c0-0.527,0.416-0.948,0.948-0.948
				c0.514,0,0.928,0.421,0.928,0.948C194.978,85.962,194.581,86.396,194.064,86.396z M193.27,95.446v-7.575h1.566v7.575H193.27z"/>
			<path class="st1" d="M199.095,95.63c-0.734,0-1.277-0.311-1.551-0.837c-0.177-0.333-0.221-0.723-0.221-1.744v-4.101h-1.283
				v-0.871l1.283-0.162v-2.094h1.567v2.05h2.083v1.077h-2.083v3.646c0,1.284,0.015,1.318,0.126,1.512
				c0.111,0.192,0.338,0.283,0.677,0.283c0.368,0,0.719-0.061,1.325-0.22l0.248,0.96C200.348,95.479,199.729,95.63,199.095,95.63z"
				/>
			<path class="st1" d="M205.65,96.398c-0.718,1.954-1.196,2.391-2.607,2.391c-0.353,0-0.644-0.024-1.155-0.115l0.116-0.994
				c0.289,0.037,0.466,0.037,0.637,0.037c1.049,0,1.106-0.116,1.769-1.704l0.25-0.624l-3.093-7.517h1.736l2.163,5.734l1.919-5.734
				h1.432L205.65,96.398z"/>
		</g>
		<g>
			<polygon class="st3" points="209.117,71.385 209.117,50.958 178.385,50.958 178.385,71.385 209.117,71.385 			"/>
			<polygon class="st0" points="193.724,53.041 194.038,53.935 194.996,53.947 194.242,54.522 194.519,55.428 193.738,54.898 
				192.957,55.44 193.222,54.53 192.461,53.967 193.416,53.94 193.724,53.041 			"/>
			<polygon class="st0" points="193.831,66.625 194.145,67.522 195.102,67.538 194.349,68.118 194.625,69.031 193.845,68.493 
				193.063,69.043 193.329,68.126 192.567,67.558 193.522,67.527 193.831,66.625 			"/>
			<polygon class="st0" points="197.095,53.889 197.414,54.787 198.367,54.795 197.607,55.382 197.897,56.291 197.109,55.75 
				196.325,56.303 196.597,55.39 195.832,54.814 196.782,54.792 197.095,53.889 			"/>
			<polygon class="st0" points="197.188,65.728 197.506,66.625 198.46,66.642 197.7,67.221 197.99,68.129 197.202,67.595 
				196.418,68.141 196.689,67.228 195.925,66.662 196.875,66.629 197.188,65.728 			"/>
			<polygon class="st0" points="190.376,53.942 190.703,54.84 191.646,54.848 190.9,55.435 191.175,56.344 190.391,55.803 
				189.613,56.356 189.882,55.443 189.12,54.867 190.076,54.845 190.376,53.942 			"/>
			<polygon class="st0" points="190.469,65.726 190.796,66.621 191.739,66.635 190.993,67.219 191.268,68.127 190.483,67.584 
				189.706,68.14 189.975,67.227 189.212,66.655 190.168,66.626 190.469,65.726 			"/>
			<polygon class="st0" points="199.643,56.332 199.961,57.229 200.916,57.245 200.163,57.824 200.444,58.735 199.658,58.199 
				198.885,58.748 199.152,57.832 198.38,57.265 199.333,57.234 199.643,56.332 			"/>
			<polygon class="st0" points="199.697,63.224 200.016,64.115 200.97,64.129 200.217,64.717 200.498,65.624 199.712,65.083 
				198.938,65.636 199.206,64.725 198.434,64.148 199.387,64.12 199.697,63.224 			"/>
			<polygon class="st0" points="187.944,56.423 188.267,57.321 189.217,57.337 188.47,57.916 188.75,58.827 187.959,58.291 
				187.184,58.839 187.447,57.924 186.688,57.357 187.638,57.326 187.944,56.423 			"/>
			<polygon class="st0" points="187.998,63.249 188.321,64.146 189.271,64.16 188.524,64.742 188.804,65.654 188.013,65.113 
				187.237,65.666 187.5,64.75 186.742,64.18 187.692,64.151 187.998,63.249 			"/>
			<polygon class="st0" points="200.647,59.737 200.966,60.639 201.915,60.649 201.159,61.23 201.449,62.143 200.662,61.603 
				199.879,62.155 200.15,61.238 199.388,60.669 200.335,60.644 200.647,59.737 			"/>
			<polygon class="st0" points="187.059,59.844 187.38,60.746 188.336,60.756 187.574,61.337 187.862,62.25 187.074,61.709 
				186.3,62.262 186.562,61.345 185.805,60.776 186.755,60.751 187.059,59.844 			"/>
		</g>
		<g>
			<path class="st1" d="M73.809,56.685v1.049c0,6.252,2.632,9.081,7.499,9.081c2.828,0,5.394-0.527,10.461-2.169l1.181,3.816
				c-6.444,2.828-9.603,3.682-13.354,3.682c-7.63,0-12.631-5.656-12.631-15.263c0-10.461,5.132-17.301,13.751-17.301
				c8.357,0,12.565,5.067,12.565,15.659v1.447H73.809z M81.242,44.118c-4.209,0-6.709,3.028-7.236,8.82l13.158-0.528
				C87.033,46.755,85.189,44.118,81.242,44.118z"/>
			<path class="st1" d="M118.082,28.986c-0.593-0.131-2.697-0.396-5.394-0.396c-3.355,0-4.209,1.32-4.209,5.729v5.982h8.683v4.41
				h-8.683v26.708h-6.383V44.711h-5.46V40.96l5.46-0.724v-5.128c0-4.609,0.33-6.252,1.512-7.96c1.517-2.24,3.882-3.355,7.171-3.355
				c3.291,0,6.977,0.919,7.961,1.185L118.082,28.986z"/>
			<path class="st1" d="M129.989,72.078c-3.159,0-5.921-0.458-9.869-1.447l1.055-4.343c3.159,0.723,5.524,0.989,7.694,0.989
				c4.343,0,6.578-1.578,6.578-4.475c0-2.432-0.918-3.42-5.197-4.606c-5.72-1.577-9.869-3.486-9.869-9.08
				c0-5.982,4.148-9.468,10.988-9.468c2.566,0,5.591,0.523,9.011,1.643l-0.919,4.078c-2.17-0.461-4.998-0.984-7.298-0.984
				c-3.359,0-5.333,1.382-5.333,4.009c0,6.579,15.198,2.305,15.198,13.424C142.028,68.331,137.618,72.078,129.989,72.078z"/>
			<path class="st1" d="M164.001,71.419v-2.827c-3.947,2.3-6.775,3.551-9.539,3.551c-4.343,0-8.095-3.285-8.095-9.738
				c0-4.008,1.582-6.444,4.078-7.891c2.963-1.712,7.634-1.974,13.29-1.974v-1.054c0-4.731,0-6.645-5.59-6.645
				c-2.3,0-5.198,0.332-9.145,1.055l-0.659-4.083c5.132-1.513,9.346-2.235,12.697-2.235c3.686,0,6.056,0.923,7.438,2.897
				c1.251,1.772,1.577,3.816,1.577,9.603v19.34H164.001z M163.735,56.288c-8.679,0.592-10.919,1.843-10.919,5.925
				c0,3.286,1.646,4.867,4.079,4.867c2.501,0,6.84-1.843,6.84-1.843V56.288z"/>
		</g>
	</g>
	<linearGradient id="SVGID_1_" gradientUnits="userSpaceOnUse" x1="0" y1="28.1611" x2="79.9321" y2="28.1611">
		<stop  offset="0.0056" style="stop-color:#F58220"/>
		<stop  offset="0.1673" style="stop-color:#F58422"/>
		<stop  offset="0.3471" style="stop-color:#F68A2D"/>
		<stop  offset="0.5355" style="stop-color:#F7933F"/>
		<stop  offset="0.73" style="stop-color:#F9A15A"/>
		<stop  offset="0.9271" style="stop-color:#FBB479"/>
		<stop  offset="1" style="stop-color:#FCBC86"/>
	</linearGradient>
	<path class="st2" d="M29.178,0l4.911,3.824l5.618-0.887l-2.425,3.396l4.789,3.838l-6.479-1.619l-2.694,3.33l-1.541-4.466
		l-6.429-1.846l5.512-1.096L29.178,0L29.178,0z M47.246,3.127l1.137,3.664l-4.631,0.906l5.457,1.495l1.375,3.638l2.227-2.719
		l5.514,1.311L54.2,8.307l2.006-2.781l-4.749,0.733L47.246,3.127L47.246,3.127z M6.291,2.37l1.752,6.645L0,10.735l9.332,2.625
		l2.167,6.605l4.001-4.992l9.412,2.3l-6.927-5.604l3.623-5.1L13.39,7.988L6.291,2.37L6.291,2.37z M62.855,12.555l1.004,2.875
		l-3.806,0.757l4.526,1.121l1.195,2.846l1.791-2.16l4.565,0.962l-3.446-2.403l1.598-2.21l-3.891,0.628L62.855,12.555L62.855,12.555z
		 M5.599,22.687l1.271,4.799l-5.884,1.367l6.824,1.77l1.557,4.762l2.935-3.672l6.878,1.525l-5.046-3.969l2.65-3.763l-6.003,1.151
		L5.599,22.687L5.599,22.687z M33.791,49.162l0.819,2.632l-3.488,0.931l4.091,0.793l0.995,2.607l1.701-2.128l4.128,0.651
		l-3.066-2.063l1.525-2.174l-3.566,0.81L33.791,49.162L33.791,49.162z M17.397,38.53l1.068,3.793l-4.801,1.208l5.576,1.265
		l1.316,3.765l2.373-2.983l5.638,1.071l-4.159-3.066l2.15-3.04l-4.906,1.04L17.397,38.53L17.397,38.53z M73.2,24.288l0.729,2.087
		l-2.763,0.549l3.284,0.814l0.869,2.066l1.297-1.569l3.316,0.7l-2.504-1.745l1.16-1.605l-2.825,0.457L73.2,24.288L73.2,24.288z
		 M52.285,50.807l0.729,2.086l-2.761,0.55l3.283,0.814l0.867,2.065l1.303-1.568l3.311,0.699l-2.499-1.742l1.16-1.607l-2.825,0.457
		L52.285,50.807L52.285,50.807z"/>
</g>
</svg>
