<?xml version="1.0" encoding="UTF-8" standalone="no"?><svg xmlns="http://www.w3.org/2000/svg" xmlns:xlink="http://www.w3.org/1999/xlink" contentScriptType="application/ecmascript" contentStyleType="text/css" height="249px" preserveAspectRatio="none" style="width:120px;height:249px;" version="1.1" viewBox="0 0 120 249" width="120px" zoomAndPan="magnify"><defs><filter height="300%" id="f1vs93blb8lkrx" width="300%" x="-1" y="-1"><feGaussianBlur result="blurOut" stdDeviation="2.0"/><feColorMatrix in="blurOut" result="blurOut2" type="matrix" values="0 0 0 0 0 0 0 0 0 0 0 0 0 0 0 0 0 0 .4 0"/><feOffset dx="4.0" dy="4.0" in="blurOut2" result="blurOut3"/><feBlend in="SourceGraphic" in2="blurOut3" mode="normal"/></filter></defs><g><ellipse cx="57.5" cy="18" fill="#000000" filter="url(#f1vs93blb8lkrx)" rx="10" ry="10" style="stroke: none; stroke-width: 1.0;"/><rect fill="#FEFECE" filter="url(#f1vs93blb8lkrx)" height="35.0938" rx="12.5" ry="12.5" style="stroke: #A80036; stroke-width: 1.5;" width="73" x="21" y="68"/><text fill="#000000" font-family="sans-serif" font-size="12" lengthAdjust="spacingAndGlyphs" textLength="53" x="31" y="90.457">rendering</text><rect fill="#FEFECE" filter="url(#f1vs93blb8lkrx)" height="35.0938" rx="12.5" ry="12.5" style="stroke: #A80036; stroke-width: 1.5;" width="103" x="6" y="143"/><text fill="#000000" font-family="sans-serif" font-size="12" lengthAdjust="spacingAndGlyphs" textLength="83" x="16" y="165.457">load hyperlinks</text><ellipse cx="57.5" cy="228" fill="none" filter="url(#f1vs93blb8lkrx)" rx="10" ry="10" style="stroke: #000000; stroke-width: 1.0;"/><ellipse cx="58" cy="228.5" fill="#000000" rx="6" ry="6" style="stroke: none; stroke-width: 1.0;"/><!--MD5=[5e68b09e51f16ed7e04472deaafa4394]
link start to rendering--><path d="M57.5,28.107 C57.5,37.009 57.5,50.899 57.5,62.666 " fill="none" id="start-&gt;rendering" style="stroke: #A80036; stroke-width: 1.0;"/><polygon fill="#A80036" points="57.5,67.898,61.5,58.898,57.5,62.898,53.5,58.898,57.5,67.898" style="stroke: #A80036; stroke-width: 1.0;"/><!--MD5=[adbcc9116a5340dd5f1d40fa4df5b146]
link rendering to load hyperlinks--><path d="M57.5,103.065 C57.5,113.259 57.5,126.447 57.5,137.51 " fill="none" id="rendering-&gt;load hyperlinks" style="stroke: #A80036; stroke-width: 1.0;"/><polygon fill="#A80036" points="57.5,142.748,61.5,133.748,57.5,137.748,53.5,133.748,57.5,142.748" style="stroke: #A80036; stroke-width: 1.0;"/><!--MD5=[6169faf99b083359c0c5ef646da230d7]
link load hyperlinks to end--><path d="M57.5,178.0284 C57.5,188.6446 57.5,202.3033 57.5,212.4974 " fill="none" id="load hyperlinks-&gt;end" style="stroke: #A80036; stroke-width: 1.0;"/><polygon fill="#A80036" points="57.5,217.763,61.5,208.763,57.5,212.763,53.5,208.763,57.5,217.763" style="stroke: #A80036; stroke-width: 1.0;"/><!--MD5=[21371715cbcb8946ada30c0e84344640]
@startuml "about-page"
(*) - -> "rendering"
- -> "load hyperlinks"
- -> (*)
@enduml

PlantUML version 1.2020.10(Sun May 17 11:35:57 CEST 2020)
(GPL source distribution)
Java Runtime: Java(TM) SE Runtime Environment
JVM: Java HotSpot(TM) Client VM
Java Version: 1.8.0_261-b12
Operating System: Windows 10
Default Encoding: Cp1252
Language: en
Country: US
--></g></svg>