<?xml version="1.0" encoding="UTF-8" standalone="no"?><svg xmlns="http://www.w3.org/2000/svg" xmlns:xlink="http://www.w3.org/1999/xlink" contentScriptType="application/ecmascript" contentStyleType="text/css" height="957px" preserveAspectRatio="none" style="width:951px;height:957px;" version="1.1" viewBox="0 0 951 957" width="951px" zoomAndPan="magnify"><defs><filter height="300%" id="f329ocyygammq" width="300%" x="-1" y="-1"><feGaussianBlur result="blurOut" stdDeviation="2.0"/><feColorMatrix in="blurOut" result="blurOut2" type="matrix" values="0 0 0 0 0 0 0 0 0 0 0 0 0 0 0 0 0 0 .4 0"/><feOffset dx="4.0" dy="4.0" in="blurOut2" result="blurOut3"/><feBlend in="SourceGraphic" in2="blurOut3" mode="normal"/></filter></defs><g><ellipse cx="389" cy="18" fill="#000000" filter="url(#f329ocyygammq)" rx="10" ry="10" style="stroke: none; stroke-width: 1.0;"/><rect fill="#FEFECE" filter="url(#f329ocyygammq)" height="35.0938" rx="12.5" ry="12.5" style="stroke: #A80036; stroke-width: 1.5;" width="149" x="314.5" y="69"/><text fill="#000000" font-family="sans-serif" font-size="12" lengthAdjust="spacingAndGlyphs" textLength="129" x="324.5" y="91.457">Load web components.</text><rect fill="#000000" filter="url(#f329ocyygammq)" height="8" style="stroke: none; stroke-width: 1.0;" width="80" x="349" y="145"/><rect fill="#FEFECE" filter="url(#f329ocyygammq)" height="35.0938" rx="12.5" ry="12.5" style="stroke: #A80036; stroke-width: 1.5;" width="160" x="83" y="194"/><text fill="#000000" font-family="sans-serif" font-size="12" lengthAdjust="spacingAndGlyphs" textLength="140" x="93" y="216.457">Render input-component.</text><polygon fill="#FEFECE" filter="url(#f329ocyygammq)" points="120,304,132,316,120,328,108,316,120,304" style="stroke: #A80036; stroke-width: 1.5;"/><rect fill="#FEFECE" filter="url(#f329ocyygammq)" height="35.0938" rx="12.5" ry="12.5" style="stroke: #A80036; stroke-width: 1.5;" width="95" x="72.5" y="403"/><text fill="#000000" font-family="sans-serif" font-size="12" lengthAdjust="spacingAndGlyphs" textLength="75" x="82.5" y="425.457">Call backend.</text><polygon fill="#FEFECE" filter="url(#f329ocyygammq)" points="120,513,132,525,120,537,108,525,120,513" style="stroke: #A80036; stroke-width: 1.5;"/><rect fill="#000000" filter="url(#f329ocyygammq)" height="8" style="stroke: none; stroke-width: 1.0;" width="80" x="144" y="612"/><rect fill="#FEFECE" filter="url(#f329ocyygammq)" height="35.0938" rx="12.5" ry="12.5" style="stroke: #A80036; stroke-width: 1.5;" width="169" x="113.5" y="695"/><text fill="#000000" font-family="sans-serif" font-size="12" lengthAdjust="spacingAndGlyphs" textLength="149" x="123.5" y="717.457">Update selected baseterm.</text><rect fill="#FEFECE" filter="url(#f329ocyygammq)" height="35.0938" rx="12.5" ry="12.5" style="stroke: #A80036; stroke-width: 1.5;" width="149" x="302.5" y="695"/><text fill="#000000" font-family="sans-serif" font-size="12" lengthAdjust="spacingAndGlyphs" textLength="129" x="312.5" y="717.457">Update selected facets.</text><rect fill="#FEFECE" filter="url(#f329ocyygammq)" height="35.0938" rx="12.5" ry="12.5" style="stroke: #A80036; stroke-width: 1.5;" width="148" x="37" y="640"/><text fill="#000000" font-family="sans-serif" font-size="12" lengthAdjust="spacingAndGlyphs" textLength="128" x="47" y="662.457">Prompt error message.</text><ellipse cx="417" cy="936" fill="none" filter="url(#f329ocyygammq)" rx="10" ry="10" style="stroke: #000000; stroke-width: 1.0;"/><ellipse cx="417.5" cy="936.5" fill="#000000" rx="6" ry="6" style="stroke: none; stroke-width: 1.0;"/><rect fill="#FEFECE" filter="url(#f329ocyygammq)" height="35.0938" rx="12.5" ry="12.5" style="stroke: #A80036; stroke-width: 1.5;" width="193" x="158.5" y="249"/><text fill="#000000" font-family="sans-serif" font-size="12" lengthAdjust="spacingAndGlyphs" textLength="173" x="168.5" y="271.457">Render baseterm-component.</text><rect fill="#000000" filter="url(#f329ocyygammq)" height="8" style="stroke: none; stroke-width: 1.0;" width="80" x="297" y="779"/><rect fill="#FEFECE" filter="url(#f329ocyygammq)" height="35.0938" rx="12.5" ry="12.5" style="stroke: #A80036; stroke-width: 1.5;" width="166" x="286" y="557"/><text fill="#000000" font-family="sans-serif" font-size="12" lengthAdjust="spacingAndGlyphs" textLength="146" x="296" y="579.457">Render facets-component.</text><rect fill="#FEFECE" filter="url(#f329ocyygammq)" height="35.0938" rx="12.5" ry="12.5" style="stroke: #A80036; stroke-width: 1.5;" width="179" x="233.5" y="850"/><text fill="#000000" font-family="sans-serif" font-size="12" lengthAdjust="spacingAndGlyphs" textLength="159" x="243.5" y="872.457">Update overview-component.</text><rect fill="#FEFECE" filter="url(#f329ocyygammq)" height="35.0938" rx="12.5" ry="12.5" style="stroke: #A80036; stroke-width: 1.5;" width="159" x="432.5" y="850"/><text fill="#000000" font-family="sans-serif" font-size="12" lengthAdjust="spacingAndGlyphs" textLength="139" x="442.5" y="872.457">Update code-component.</text><rect fill="#FEFECE" filter="url(#f329ocyygammq)" height="35.0938" rx="12.5" ry="12.5" style="stroke: #A80036; stroke-width: 1.5;" width="180" x="384" y="458"/><text fill="#000000" font-family="sans-serif" font-size="12" lengthAdjust="spacingAndGlyphs" textLength="160" x="394" y="480.457">Render overview-component.</text><rect fill="#FEFECE" filter="url(#f329ocyygammq)" height="35.0938" rx="12.5" ry="12.5" style="stroke: #A80036; stroke-width: 1.5;" width="160" x="468" y="249"/><text fill="#000000" font-family="sans-serif" font-size="12" lengthAdjust="spacingAndGlyphs" textLength="140" x="478" y="271.457">Render code-component.</text><rect fill="#FEFECE" filter="url(#f329ocyygammq)" height="35.0938" rx="12.5" ry="12.5" style="stroke: #A80036; stroke-width: 1.5;" width="183" x="596.5" y="348"/><text fill="#000000" font-family="sans-serif" font-size="12" lengthAdjust="spacingAndGlyphs" textLength="163" x="606.5" y="370.457">Render feedback-component.</text><polygon fill="#FEFECE" filter="url(#f329ocyygammq)" points="688,771,700,783,688,795,676,783,688,771" style="stroke: #A80036; stroke-width: 1.5;"/><rect fill="#FEFECE" filter="url(#f329ocyygammq)" height="35.0938" rx="12.5" ry="12.5" style="stroke: #A80036; stroke-width: 1.5;" width="152" x="612" y="850"/><text fill="#000000" font-family="sans-serif" font-size="12" lengthAdjust="spacingAndGlyphs" textLength="132" x="622" y="872.457">Enable feedback dialog.</text><rect fill="#FEFECE" filter="url(#f329ocyygammq)" height="35.0938" rx="12.5" ry="12.5" style="stroke: #A80036; stroke-width: 1.5;" width="156" x="784" y="850"/><text fill="#000000" font-family="sans-serif" font-size="12" lengthAdjust="spacingAndGlyphs" textLength="136" x="794" y="872.457">Disable feedback dialog.</text><!--MD5=[4136479610f6668e8a6a670231278a24]
link start to Load web components.--><path d="M389,28.247 C389,37.427 389,51.836 389,63.901 " fill="none" id="start-&gt;Load web components." style="stroke: #A80036; stroke-width: 1.0;"/><polygon fill="#A80036" points="389,68.907,393,59.907,389,63.907,385,59.907,389,68.907" style="stroke: #A80036; stroke-width: 1.0;"/><!--MD5=[67675264b87a3f1dadbdda1b7d878891]
link Load web components. to LOAD_COMPONENTS--><path d="M389,104.032 C389,115.512 389,130.336 389,139.503 " fill="none" id="Load web components.-&gt;LOAD_COMPONENTS" style="stroke: #A80036; stroke-width: 1.0;"/><polygon fill="#A80036" points="389,144.618,393,135.618,389,139.618,385,135.618,389,144.618" style="stroke: #A80036; stroke-width: 1.0;"/><!--MD5=[fda072541138ecc2e5bf3893b384ec95]
link LOAD_COMPONENTS to Render input-component.--><path d="M370.275,153.043 C347.551,156.905 308.161,164.14 275,173 C254.454,178.489 232.174,185.686 212.936,192.305 " fill="none" id="LOAD_COMPONENTS-&gt;Render input-component." style="stroke: #A80036; stroke-width: 1.0;"/><polygon fill="#A80036" points="208.114,193.974,217.9274,194.8092,212.8388,192.3381,215.3099,187.2495,208.114,193.974" style="stroke: #A80036; stroke-width: 1.0;"/><!--MD5=[a63179f20c7aee616f67984ca1a556e5]
link Render input-component. to #9--><path d="M155.899,229.426 C147.309,249.904 133.041,283.913 125.334,302.286 " fill="none" id="Render input-component.-&gt;#9" style="stroke: #A80036; stroke-width: 1.0;"/><polygon fill="#A80036" points="123.344,307.029,130.5139,300.2768,125.278,302.4182,123.1366,297.1823,123.344,307.029" style="stroke: #A80036; stroke-width: 1.0;"/><text fill="#000000" font-family="sans-serif" font-size="11" lengthAdjust="spacingAndGlyphs" textLength="81" x="130.0566" y="303.5603">Ask suggestions</text><!--MD5=[d611dd3074416e570b5997d60e41c46b]
link #9 to Call backend.--><path d="M120,328.361 C120,344.987 120,376.269 120,397.494 " fill="none" id="#9-&gt;Call backend." style="stroke: #A80036; stroke-width: 1.0;"/><polygon fill="#A80036" points="120,402.659,124,393.659,120,397.659,116,393.659,120,402.659" style="stroke: #A80036; stroke-width: 1.0;"/><text fill="#000000" font-family="sans-serif" font-size="11" lengthAdjust="spacingAndGlyphs" textLength="19" x="121" y="370.4189">true</text><!--MD5=[17b5566d4abc03e76fce79dd32a1bc8c]
link Call backend. to #14--><path d="M120,438.426 C120,457.492 120,488.288 120,507.273 " fill="none" id="Call backend.-&gt;#14" style="stroke: #A80036; stroke-width: 1.0;"/><polygon fill="#A80036" points="120,512.759,124,503.759,120,507.759,116,503.759,120,512.759" style="stroke: #A80036; stroke-width: 1.0;"/><text fill="#000000" font-family="sans-serif" font-size="11" lengthAdjust="spacingAndGlyphs" textLength="62" x="43.6625" y="502.7035">Data retrived</text><!--MD5=[ca16c40d455c9ee7a2caf3bb2c6d2234]
link #14 to RENDER_BT_FCS--><path d="M124.98,532.619 C129.668,538.874 136.868,548.533 143,557 C156.047,575.014 171.063,596.437 178.796,607.522 " fill="none" id="#14-&gt;RENDER_BT_FCS" style="stroke: #A80036; stroke-width: 1.0;"/><polygon fill="#A80036" points="181.803,611.838,179.94,602.1669,178.9447,607.7355,173.3761,606.7402,181.803,611.838" style="stroke: #A80036; stroke-width: 1.0;"/><text fill="#000000" font-family="sans-serif" font-size="11" lengthAdjust="spacingAndGlyphs" textLength="19" x="169" y="579.4189">true</text><!--MD5=[5c0d112240f93f3629bef2187dbc614a]
link RENDER_BT_FCS to Update selected baseterm.--><path d="M184.466,620.144 C186.045,630.803 191.29,666.209 194.768,689.683 " fill="none" id="RENDER_BT_FCS-&gt;Update selected baseterm." style="stroke: #A80036; stroke-width: 1.0;"/><polygon fill="#A80036" points="195.524,694.789,198.162,685.3,194.7913,689.843,190.2483,686.4723,195.524,694.789" style="stroke: #A80036; stroke-width: 1.0;"/><!--MD5=[2c3f2fc3f996f3795a83909f3140fd69]
link RENDER_BT_FCS to Update selected facets.--><path d="M190.421,620.144 C213.169,631.282 291.1,669.44 338.751,692.772 " fill="none" id="RENDER_BT_FCS-&gt;Update selected facets." style="stroke: #A80036; stroke-width: 1.0;"/><polygon fill="#A80036" points="343.265,694.982,336.9401,687.4324,338.7742,692.7837,333.4229,694.6178,343.265,694.982" style="stroke: #A80036; stroke-width: 1.0;"/><!--MD5=[cf4f2f5d9871a608af21754c4e671f91]
link #14 to Prompt error message.--><path d="M117.268,534.312 C115.382,540.493 113.033,549.175 112,557 C108.491,583.569 108.868,614.477 109.709,634.707 " fill="none" id="#14-&gt;Prompt error message." style="stroke: #A80036; stroke-width: 1.0;"/><polygon fill="#A80036" points="109.944,639.864,113.5311,630.6916,109.7169,634.8692,105.5393,631.055,109.944,639.864" style="stroke: #A80036; stroke-width: 1.0;"/><text fill="#000000" font-family="sans-serif" font-size="11" lengthAdjust="spacingAndGlyphs" textLength="24" x="113" y="579.4189">false</text><!--MD5=[1dd524642148eeb9892e390c5bb81b5e]
link Prompt error message. to end--><path d="M102.299,675.199 C93.7569,693.17 82,722.837 82,750 C82,750 82,750 82,868.5 C82,934.68 336.712,936.0081 401.933,935.2634 " fill="none" id="Prompt error message.-&gt;end" style="stroke: #A80036; stroke-width: 1.0;"/><polygon fill="#A80036" points="406.974,935.197,397.9211,931.3182,401.9745,935.2641,398.0285,939.3175,406.974,935.197" style="stroke: #A80036; stroke-width: 1.0;"/><!--MD5=[5d486b351b955fb464c207889366aa95]
link #9 to end--><path d="M111.431,319.906 C84.9195,329.497 6,362.809 6,419.5 C6,419.5 6,419.5 6,868.5 C6,909.3592 326.626,929.9189 401.499,934.163 " fill="none" id="#9-&gt;end" style="stroke: #A80036; stroke-width: 1.0;"/><polygon fill="#A80036" points="406.84,934.4616,398.0781,929.9639,401.8478,934.1816,397.6301,937.9513,406.84,934.4616" style="stroke: #A80036; stroke-width: 1.0;"/><text fill="#000000" font-family="sans-serif" font-size="11" lengthAdjust="spacingAndGlyphs" textLength="24" x="7" y="662.4189">false</text><!--MD5=[359358d8676c791edff4f145e44a410d]
link LOAD_COMPONENTS to Render baseterm-component.--><path d="M383.246,153.088 C375.759,157.213 362.406,164.942 352,173 C323.022,195.439 292.985,225.28 274.16,244.922 " fill="none" id="LOAD_COMPONENTS-&gt;Render baseterm-component." style="stroke: #A80036; stroke-width: 1.0;"/><polygon fill="#A80036" points="270.548,248.709,279.6535,244.9553,273.9982,245.0902,273.8634,239.4349,270.548,248.709" style="stroke: #A80036; stroke-width: 1.0;"/><!--MD5=[f6c6dcb81ec457f943c9ad68093bbd65]
link Render baseterm-component. to Update selected baseterm.--><path d="M255,284.323 C255,303.667 255,336.377 255,364.5 C255,364.5 255,364.5 255,617 C255,645.678 235.514,673.126 219.329,690.979 " fill="none" id="Render baseterm-component.-&gt;Update selected baseterm." style="stroke: #A80036; stroke-width: 1.0;"/><polygon fill="#A80036" points="215.723,694.862,224.7784,690.9891,219.1254,691.1982,218.9163,685.5452,215.723,694.862" style="stroke: #A80036; stroke-width: 1.0;"/><!--MD5=[fc39353f751988f4052945b89d50f5ae]
link Update selected baseterm. to RENDER_OW_CD--><path d="M231.648,730.082 C262.461,745.267 306.221,766.832 326.246,776.7 " fill="none" id="Update selected baseterm.-&gt;RENDER_OW_CD" style="stroke: #A80036; stroke-width: 1.0;"/><polygon fill="#A80036" points="330.803,778.946,324.4984,771.3795,326.3181,776.7357,320.9619,778.5554,330.803,778.946" style="stroke: #A80036; stroke-width: 1.0;"/><!--MD5=[8aef946d2116eb5b2b9f765f1d21c625]
link LOAD_COMPONENTS to Render facets-component.--><path d="M387.062,153.144 C381.863,161.888 368,187.374 368,210.5 C368,210.5 368,210.5 368,476.5 C368,502.318 368.359,531.999 368.646,551.658 " fill="none" id="LOAD_COMPONENTS-&gt;Render facets-component." style="stroke: #A80036; stroke-width: 1.0;"/><polygon fill="#A80036" points="368.721,556.678,372.5842,547.6185,368.6453,551.6786,364.5851,547.7396,368.721,556.678" style="stroke: #A80036; stroke-width: 1.0;"/><!--MD5=[ccde5644045ec72c330c66b6ac58dffe]
link Render facets-component. to Update selected facets.--><path d="M369.981,592.176 C371.42,616.647 374.107,662.318 375.706,689.508 " fill="none" id="Render facets-component.-&gt;Update selected facets." style="stroke: #A80036; stroke-width: 1.0;"/><polygon fill="#A80036" points="376.011,694.687,379.4744,685.4672,375.7167,689.6957,371.4882,685.938,376.011,694.687" style="stroke: #A80036; stroke-width: 1.0;"/><!--MD5=[e1a0de306f616aa4b947ae9c75b50326]
link Update selected facets. to RENDER_OW_CD--><path d="M367.317,730.082 C359.051,744.237 347.548,763.937 341.358,774.537 " fill="none" id="Update selected facets.-&gt;RENDER_OW_CD" style="stroke: #A80036; stroke-width: 1.0;"/><polygon fill="#A80036" points="338.783,778.946,346.776,773.1917,341.3047,774.6285,339.868,769.1571,338.783,778.946" style="stroke: #A80036; stroke-width: 1.0;"/><!--MD5=[02bc6130e8c022141e2b190a0583912c]
link RENDER_OW_CD to Update overview-component.--><path d="M336.468,787.133 C334.891,796.428 330.136,824.448 326.723,844.56 " fill="none" id="RENDER_OW_CD-&gt;Update overview-component." style="stroke: #A80036; stroke-width: 1.0;"/><polygon fill="#A80036" points="325.844,849.7428,331.2942,841.5395,326.681,844.8134,323.4071,840.2002,325.844,849.7428" style="stroke: #A80036; stroke-width: 1.0;"/><!--MD5=[bb0d200816c8be8d75c1550cca05c891]
link RENDER_OW_CD to Update code-component.--><path d="M343.647,787.133 C364.429,796.931 429.348,827.536 472.23,847.7512 " fill="none" id="RENDER_OW_CD-&gt;Update code-component." style="stroke: #A80036; stroke-width: 1.0;"/><polygon fill="#A80036" points="476.826,849.9181,470.392,842.4613,472.3037,847.7854,466.9796,849.697,476.826,849.9181" style="stroke: #A80036; stroke-width: 1.0;"/><!--MD5=[abd77a955a88ef6809f09302290801f8]
link LOAD_COMPONENTS to Render overview-component.--><path d="M393.181,153.008 C403.804,161.036 431,184.16 431,210.5 C431,210.5 431,210.5 431,366.5 C431,398.53 447.527,432.356 460.089,453.439 " fill="none" id="LOAD_COMPONENTS-&gt;Render overview-component." style="stroke: #A80036; stroke-width: 1.0;"/><polygon fill="#A80036" points="462.702,457.74,461.4455,447.9716,460.105,453.4674,454.6093,452.1268,462.702,457.74" style="stroke: #A80036; stroke-width: 1.0;"/><!--MD5=[5f5d084415cea1f2a32b9f05dad2c580]
link Render overview-component. to Update overview-component.--><path d="M476.507,493.279 C479.17,512.583 483,545.256 483,573.5 C483,573.5 483,573.5 483,784 C483,819.001 452.379,839.167 417.929,850.7793 " fill="none" id="Render overview-component.-&gt;Update overview-component." style="stroke: #A80036; stroke-width: 1.0;"/><polygon fill="#A80036" points="412.822,852.4313,422.6164,853.4651,417.579,850.8914,420.1527,845.854,412.822,852.4313" style="stroke: #A80036; stroke-width: 1.0;"/><!--MD5=[f8c593e630d0b426d0f096b6bb250a93]
link Update overview-component. to end--><path d="M346.72,885.2808 C365.253,898.3917 390.246,916.0732 404.892,926.4345 " fill="none" id="Update overview-component.-&gt;end" style="stroke: #A80036; stroke-width: 1.0;"/><polygon fill="#A80036" points="409.087,929.4018,404.0511,920.9378,405.0056,926.5135,399.4298,927.4681,409.087,929.4018" style="stroke: #A80036; stroke-width: 1.0;"/><!--MD5=[6314e3ebb71e23377397ebe27c5e482c]
link LOAD_COMPONENTS to Render code-component.--><path d="M400.255,153.123 C412.375,156.784 431.944,163.571 447,173 C479.44,193.316 511.02,224.659 529.993,245.126 " fill="none" id="LOAD_COMPONENTS-&gt;Render code-component." style="stroke: #A80036; stroke-width: 1.0;"/><polygon fill="#A80036" points="533.387,248.816,530.2371,239.4844,530.0017,245.1364,524.3497,244.901,533.387,248.816" style="stroke: #A80036; stroke-width: 1.0;"/><!--MD5=[aa3e06fcfbc32c8b6a1bba8721504162]
link Render code-component. to Update code-component.--><path d="M557.084,284.122 C566.545,303.017 580,335.063 580,364.5 C580,364.5 580,364.5 580,784 C580,809.712 560.09,831.753 541.817,846.5688 " fill="none" id="Render code-component.-&gt;Update code-component." style="stroke: #A80036; stroke-width: 1.0;"/><polygon fill="#A80036" points="537.708,849.8047,547.2532,847.3779,541.6358,846.7108,542.3029,841.0934,537.708,849.8047" style="stroke: #A80036; stroke-width: 1.0;"/><!--MD5=[e6d5642d010b54bb27eaf5fe30dcf7bf]
link Update code-component. to end--><path d="M488.027,885.2808 C469.298,898.3917 444.038,916.0732 429.236,926.4345 " fill="none" id="Update code-component.-&gt;end" style="stroke: #A80036; stroke-width: 1.0;"/><polygon fill="#A80036" points="424.997,929.4018,434.664,927.518,429.0933,926.5347,430.0766,920.9639,424.997,929.4018" style="stroke: #A80036; stroke-width: 1.0;"/><!--MD5=[2f18e77be7d87cb66e23f49f2f8bf2d7]
link LOAD_COMPONENTS to Render feedback-component.--><path d="M412.271,153.01 C460.723,160.459 573.295,184.098 638,249 C664.069,275.148 677.508,317.1 683.632,342.6 " fill="none" id="LOAD_COMPONENTS-&gt;Render feedback-component." style="stroke: #A80036; stroke-width: 1.0;"/><polygon fill="#A80036" points="684.83,347.78,686.6982,338.11,683.7029,342.9087,678.9042,339.9133,684.83,347.78" style="stroke: #A80036; stroke-width: 1.0;"/><!--MD5=[d75a178b5c9bf5282f2a276ab8d784ec]
link Render feedback-component. to #51--><path d="M688,383.336 C688,404.583 688,442.25 688,474.5 C688,474.5 688,474.5 688,713.5 C688,731.348 688,751.811 688,765.69 " fill="none" id="Render feedback-component.-&gt;#51" style="stroke: #A80036; stroke-width: 1.0;"/><polygon fill="#A80036" points="688,770.847,692,761.847,688,765.847,684,761.847,688,770.847" style="stroke: #A80036; stroke-width: 1.0;"/><text fill="#000000" font-family="sans-serif" font-size="11" lengthAdjust="spacingAndGlyphs" textLength="91" x="577.0938" y="761.2881">Can post feedback</text><!--MD5=[e1a663670e4040060273eaf8ce67a085]
link #51 to Enable feedback dialog.--><path d="M688,795.126 C688,807.771 688,828.72 688,844.66 " fill="none" id="#51-&gt;Enable feedback dialog." style="stroke: #A80036; stroke-width: 1.0;"/><polygon fill="#A80036" points="688,849.8545,692,840.8545,688,844.8545,684,840.8545,688,849.8545" style="stroke: #A80036; stroke-width: 1.0;"/><text fill="#000000" font-family="sans-serif" font-size="11" lengthAdjust="spacingAndGlyphs" textLength="19" x="689" y="827.4189">true</text><!--MD5=[c1868284b29aa561050affe0375f132f]
link Enable feedback dialog. to end--><path d="M620.663,885.0236 C557.275,900.5782 466.977,922.7363 431.813,931.365 " fill="none" id="Enable feedback dialog.-&gt;end" style="stroke: #A80036; stroke-width: 1.0;"/><polygon fill="#A80036" points="426.656,932.6306,436.3504,934.3681,431.5116,931.4378,434.4419,926.5991,426.656,932.6306" style="stroke: #A80036; stroke-width: 1.0;"/><!--MD5=[7fb32eeb0d477674ad290baa1ed53b00]
link #51 to Disable feedback dialog.--><path d="M695.477,787.545 C716.96,797.731 780.018,827.629 822.075,847.5703 " fill="none" id="#51-&gt;Disable feedback dialog." style="stroke: #A80036; stroke-width: 1.0;"/><polygon fill="#A80036" points="826.841,849.8297,820.4235,842.3587,822.3234,847.687,816.9951,849.5869,826.841,849.8297" style="stroke: #A80036; stroke-width: 1.0;"/><text fill="#000000" font-family="sans-serif" font-size="11" lengthAdjust="spacingAndGlyphs" textLength="24" x="781" y="827.4189">false</text><!--MD5=[5ef0a32a28f25fc552c91cccffedfce7]
link Disable feedback dialog. to end--><path d="M783.823,883.3521 C780.506,883.9209 777.221,884.4727 774,885 C641.976,906.6108 481.521,926.9931 432.166,933.1307 " fill="none" id="Disable feedback dialog.-&gt;end" style="stroke: #A80036; stroke-width: 1.0;"/><polygon fill="#A80036" points="426.963,933.7761,436.3871,936.6374,431.9249,933.1604,435.4019,928.6983,426.963,933.7761" style="stroke: #A80036; stroke-width: 1.0;"/><!--MD5=[fd36aa205d6058eb49b2c90f16333ef4]
@startuml "home-page"
(*) - -> "Load web components."
- -> ==LOAD_COMPONENTS==
==LOAD_COMPONENTS== - -> "Render input-component."
if "Ask suggestions" then 
    - -> [true] "Call backend."
    if "Data retrived" then
        - -> [true] ==RENDER_BT_FCS==
        ==RENDER_BT_FCS== - -> "Update selected baseterm."
        ==RENDER_BT_FCS== - -> "Update selected facets."
    else 
        - -> [false] "Prompt error message."
        - -> (*)
    endif
else 
    - -> [false] (*)
endif
==LOAD_COMPONENTS== - -> "Render baseterm-component."
- -> "Update selected baseterm."
- -> ==RENDER_OW_CD==
==LOAD_COMPONENTS== - -> "Render facets-component."
- -> "Update selected facets."
- -> ==RENDER_OW_CD==
==RENDER_OW_CD== - -> "Update overview-component."
==RENDER_OW_CD== - -> "Update code-component."
==LOAD_COMPONENTS== - -> "Render overview-component."
- -> "Update overview-component."
- -> (*)
==LOAD_COMPONENTS== - -> "Render code-component."
- -> "Update code-component."
- -> (*)
==LOAD_COMPONENTS== - -> "Render feedback-component."
if "Can post feedback" then
    - -> [true] "Enable feedback dialog."
    - -> (*)
else 
    - -> [false] "Disable feedback dialog."
    - -> (*)
endif
@enduml

PlantUML version 1.2020.10(Sun May 17 11:35:57 CEST 2020)
(GPL source distribution)
Java Runtime: Java(TM) SE Runtime Environment
JVM: Java HotSpot(TM) Client VM
Java Version: 1.8.0_261-b12
Operating System: Windows 10
Default Encoding: Cp1252
Language: en
Country: US
--></g></svg>