<?xml version="1.0" encoding="UTF-8" standalone="no"?><svg xmlns="http://www.w3.org/2000/svg" xmlns:xlink="http://www.w3.org/1999/xlink" contentScriptType="application/ecmascript" contentStyleType="text/css" height="595px" preserveAspectRatio="none" style="width:419px;height:595px;" version="1.1" viewBox="0 0 419 595" width="419px" zoomAndPan="magnify"><defs><filter height="300%" id="f1uxzsvdijru4k" width="300%" x="-1" y="-1"><feGaussianBlur result="blurOut" stdDeviation="2.0"/><feColorMatrix in="blurOut" result="blurOut2" type="matrix" values="0 0 0 0 0 0 0 0 0 0 0 0 0 0 0 0 0 0 .4 0"/><feOffset dx="4.0" dy="4.0" in="blurOut2" result="blurOut3"/><feBlend in="SourceGraphic" in2="blurOut3" mode="normal"/></filter></defs><g><ellipse cx="183" cy="18" fill="#000000" filter="url(#f1uxzsvdijru4k)" rx="10" ry="10" style="stroke: none; stroke-width: 1.0;"/><rect fill="#FEFECE" filter="url(#f1uxzsvdijru4k)" height="35.0938" rx="12.5" ry="12.5" style="stroke: #A80036; stroke-width: 1.5;" width="73" x="146.5" y="69"/><text fill="#000000" font-family="sans-serif" font-size="12" lengthAdjust="spacingAndGlyphs" textLength="53" x="156.5" y="91.457">rendering</text><rect fill="#000000" filter="url(#f1uxzsvdijru4k)" height="8" style="stroke: none; stroke-width: 1.0;" width="80" x="143" y="145"/><polygon fill="#FEFECE" filter="url(#f1uxzsvdijru4k)" points="162,194,174,206,162,218,150,206,162,194" style="stroke: #A80036; stroke-width: 1.5;"/><rect fill="#FEFECE" filter="url(#f1uxzsvdijru4k)" height="35.0938" rx="12.5" ry="12.5" style="stroke: #A80036; stroke-width: 1.5;" width="126" x="6" y="273"/><text fill="#000000" font-family="sans-serif" font-size="12" lengthAdjust="spacingAndGlyphs" textLength="106" x="16" y="295.457">Apply bt style to tag.</text><rect fill="#FEFECE" filter="url(#f1uxzsvdijru4k)" height="35.0938" rx="12.5" ry="12.5" style="stroke: #A80036; stroke-width: 1.5;" width="120" x="11" y="363"/><text fill="#000000" font-family="sans-serif" font-size="12" lengthAdjust="spacingAndGlyphs" textLength="100" x="21" y="385.457">Show bt as firt tag.</text><rect fill="#000000" filter="url(#f1uxzsvdijru4k)" height="8" style="stroke: none; stroke-width: 1.0;" width="80" x="144" y="439"/><polygon fill="#FEFECE" filter="url(#f1uxzsvdijru4k)" points="206,194,218,206,206,218,194,206,206,194" style="stroke: #A80036; stroke-width: 1.5;"/><rect fill="#FEFECE" filter="url(#f1uxzsvdijru4k)" height="35.0938" rx="12.5" ry="12.5" style="stroke: #A80036; stroke-width: 1.5;" width="125" x="248.5" y="273"/><text fill="#000000" font-family="sans-serif" font-size="12" lengthAdjust="spacingAndGlyphs" textLength="105" x="258.5" y="295.457">Apply fc style to tag.</text><rect fill="#FEFECE" filter="url(#f1uxzsvdijru4k)" height="35.0938" rx="12.5" ry="12.5" style="stroke: #A80036; stroke-width: 1.5;" width="171" x="237.5" y="363"/><text fill="#000000" font-family="sans-serif" font-size="12" lengthAdjust="spacingAndGlyphs" textLength="151" x="247.5" y="385.457">Append tags after bt (if any).</text><rect fill="#FEFECE" filter="url(#f1uxzsvdijru4k)" height="35.0938" rx="12.5" ry="12.5" style="stroke: #A80036; stroke-width: 1.5;" width="104" x="132" y="488"/><text fill="#000000" font-family="sans-serif" font-size="12" lengthAdjust="spacingAndGlyphs" textLength="84" x="142" y="510.457">Render section</text><ellipse cx="184" cy="574" fill="none" filter="url(#f1uxzsvdijru4k)" rx="10" ry="10" style="stroke: #000000; stroke-width: 1.0;"/><ellipse cx="184.5" cy="574.5" fill="#000000" rx="6" ry="6" style="stroke: none; stroke-width: 1.0;"/><!--MD5=[5e68b09e51f16ed7e04472deaafa4394]
link start to rendering--><path d="M183,28.247 C183,37.427 183,51.836 183,63.901 " fill="none" id="start-&gt;rendering" style="stroke: #A80036; stroke-width: 1.0;"/><polygon fill="#A80036" points="183,68.907,187,59.907,183,63.907,179,59.907,183,68.907" style="stroke: #A80036; stroke-width: 1.0;"/><!--MD5=[10b3ee612c19cca4f17c67f3254f3e90]
link rendering to PARALLEL_ACTION--><path d="M183,104.032 C183,115.512 183,130.336 183,139.503 " fill="none" id="rendering-&gt;PARALLEL_ACTION" style="stroke: #A80036; stroke-width: 1.0;"/><polygon fill="#A80036" points="183,144.618,187,135.618,183,139.618,179,135.618,183,144.618" style="stroke: #A80036; stroke-width: 1.0;"/><!--MD5=[34bfff272109a8ae5c18d3e4be6605b1]
link PARALLEL_ACTION to #7--><path d="M181.749,153.276 C178.912,160.707 171.857,179.185 166.996,191.916 " fill="none" id="PARALLEL_ACTION-&gt;#7" style="stroke: #A80036; stroke-width: 1.0;"/><polygon fill="#A80036" points="165.191,196.643,172.1379,189.6615,166.9743,191.9718,164.664,186.8083,165.191,196.643" style="stroke: #A80036; stroke-width: 1.0;"/><text fill="#000000" font-family="sans-serif" font-size="11" lengthAdjust="spacingAndGlyphs" textLength="90" x="51.6733" y="186.3775">Selected baseterm</text><!--MD5=[ebaf0b08a8727f15e998cb57fbfc4679]
link #7 to Apply bt style to tag.--><path d="M154.201,210.682 C143.701,215.863 124.753,226.025 111,238 C100.6457,247.016 90.8424,258.778 83.3151,268.785 " fill="none" id="#7-&gt;Apply bt style to tag." style="stroke: #A80036; stroke-width: 1.0;"/><polygon fill="#A80036" points="80.2334,272.953,88.8006,268.0947,83.2062,268.9327,82.3681,263.3383,80.2334,272.953" style="stroke: #A80036; stroke-width: 1.0;"/><text fill="#000000" font-family="sans-serif" font-size="11" lengthAdjust="spacingAndGlyphs" textLength="34" x="112" y="250.4189">not null</text><!--MD5=[883a008b30bc67f8436f0b74156699a9]
link Apply bt style to tag. to Show bt as firt tag.--><path d="M69.3762,308.052 C69.6954,322.098 70.1558,342.357 70.5049,357.717 " fill="none" id="Apply bt style to tag.-&gt;Show bt as firt tag." style="stroke: #A80036; stroke-width: 1.0;"/><polygon fill="#A80036" points="70.6187,362.723,74.4119,353.6339,70.5044,357.7243,66.414,353.8168,70.6187,362.723" style="stroke: #A80036; stroke-width: 1.0;"/><!--MD5=[748160eb1da72513d25386ed99fd8df3]
link Show bt as firt tag. to RENDER_ACTION--><path d="M101.8777,398.032 C125.803,410.841 157.504,427.814 173.626,436.446 " fill="none" id="Show bt as firt tag.-&gt;RENDER_ACTION" style="stroke: #A80036; stroke-width: 1.0;"/><polygon fill="#A80036" points="178.103,438.843,172.0581,431.0674,173.6955,436.4821,168.2808,438.1195,178.103,438.843" style="stroke: #A80036; stroke-width: 1.0;"/><!--MD5=[e52c08471b9c8526843be05614649b4c]
link #7 to RENDER_ACTION--><path d="M161.353,217.622 C160.114,240.584 157.952,296.522 163,343 C166.717,377.225 177.046,417.055 181.688,433.86 " fill="none" id="#7-&gt;RENDER_ACTION" style="stroke: #A80036; stroke-width: 1.0;"/><polygon fill="#A80036" points="183.119,438.957,184.5378,429.2109,181.7677,434.1431,176.8355,431.373,183.119,438.957" style="stroke: #A80036; stroke-width: 1.0;"/><text fill="#000000" font-family="sans-serif" font-size="11" lengthAdjust="spacingAndGlyphs" textLength="16" x="164" y="340.4189">null</text><!--MD5=[8967f7fa8f96faccf6510cbe8345c9d1]
link PARALLEL_ACTION to #17--><path d="M184.37,153.276 C187.512,160.789 195.375,179.593 200.703,192.334 " fill="none" id="PARALLEL_ACTION-&gt;#17" style="stroke: #A80036; stroke-width: 1.0;"/><polygon fill="#A80036" points="202.674,197.047,202.8929,187.2006,200.7453,192.4339,195.512,190.2864,202.674,197.047" style="stroke: #A80036; stroke-width: 1.0;"/><text fill="#000000" font-family="sans-serif" font-size="11" lengthAdjust="spacingAndGlyphs" textLength="76" x="225.6455" y="185.5052">Selected facets</text><!--MD5=[7854af43ec597f8e9fdf8293c557d225]
link #17 to Apply fc style to tag.--><path d="M212.254,211.914 C226.36,222.997 261.316,250.463 285.606,269.547 " fill="none" id="#17-&gt;Apply fc style to tag." style="stroke: #A80036; stroke-width: 1.0;"/><polygon fill="#A80036" points="289.708,272.771,285.1038,264.0646,285.7769,269.6813,280.1602,270.3543,289.708,272.771" style="stroke: #A80036; stroke-width: 1.0;"/><text fill="#000000" font-family="sans-serif" font-size="11" lengthAdjust="spacingAndGlyphs" textLength="47" x="263" y="250.4189">not empty</text><!--MD5=[840f5932d5f1f55dc60deb7c89b52066]
link Apply fc style to tag. to Append tags after bt (if any).--><path d="M313.257,308.052 C315.172,322.098 317.935,342.357 320.03,357.717 " fill="none" id="Apply fc style to tag.-&gt;Append tags after bt (if any)." style="stroke: #A80036; stroke-width: 1.0;"/><polygon fill="#A80036" points="320.712,362.723,323.4591,353.265,320.0363,357.7689,315.5324,354.3461,320.712,362.723" style="stroke: #A80036; stroke-width: 1.0;"/><!--MD5=[2017dfb5c306e87bd54842450169a67d]
link Append tags after bt (if any). to RENDER_ACTION--><path d="M285.018,398.032 C255.187,411.016 215.529,428.277 195.962,436.794 " fill="none" id="Append tags after bt (if any).-&gt;RENDER_ACTION" style="stroke: #A80036; stroke-width: 1.0;"/><polygon fill="#A80036" points="191,438.953,200.8486,439.0281,195.5844,436.9572,197.6553,431.6931,191,438.953" style="stroke: #A80036; stroke-width: 1.0;"/><!--MD5=[6686c566a9a7451789d73bf4aea820e0]
link #17 to RENDER_ACTION--><path d="M206.088,218.146 C206.152,249.855 205.037,343.172 191,419 C190.06,424.079 188.393,429.622 186.922,433.994 " fill="none" id="#17-&gt;RENDER_ACTION" style="stroke: #A80036; stroke-width: 1.0;"/><polygon fill="#A80036" points="185.232,438.782,191.9999,431.6269,186.8965,434.0672,184.4562,428.9637,185.232,438.782" style="stroke: #A80036; stroke-width: 1.0;"/><text fill="#000000" font-family="sans-serif" font-size="11" lengthAdjust="spacingAndGlyphs" textLength="29" x="203" y="340.4189">empty</text><!--MD5=[6d4a462949e8dd484f508c25e56f2069]
link RENDER_ACTION to Render section--><path d="M184,447.253 C184,453.883 184,469.453 184,482.684 " fill="none" id="RENDER_ACTION-&gt;Render section" style="stroke: #A80036; stroke-width: 1.0;"/><polygon fill="#A80036" points="184,487.8029,188,478.8029,184,482.8029,180,478.8029,184,487.8029" style="stroke: #A80036; stroke-width: 1.0;"/><!--MD5=[331e9f27d41dda333878b88a0163d1e5]
link Render section to end--><path d="M184,523.2808 C184,534.2899 184,548.5217 184,558.9361 " fill="none" id="Render section-&gt;end" style="stroke: #A80036; stroke-width: 1.0;"/><polygon fill="#A80036" points="184,563.9969,188,554.9969,184,558.9969,180,554.9969,184,563.9969" style="stroke: #A80036; stroke-width: 1.0;"/><!--MD5=[40707a33c6caf6293b297dcafb6e1486]
@startuml "overview-component"
(*) - -> "rendering"
- -> ==PARALLEL_ACTION==
if "Selected baseterm" then
    - ->[not null] "Apply bt style to tag."
    - -> "Show bt as firt tag."
    - -> ==RENDER_ACTION==
else
    - ->[null] ==RENDER_ACTION==
endif

==PARALLEL_ACTION== - -> if "Selected facets" then
    - -> [not empty] "Apply fc style to tag."
    - -> "Append tags after bt (if any)."
    - -> ==RENDER_ACTION==
else
    - -> [empty] ==RENDER_ACTION==
endif
- -> "Render section"
- -> (*)
@enduml

PlantUML version 1.2020.10(Sun May 17 11:35:57 CEST 2020)
(GPL source distribution)
Java Runtime: Java(TM) SE Runtime Environment
JVM: Java HotSpot(TM) Client VM
Java Version: 1.8.0_261-b12
Operating System: Windows 10
Default Encoding: Cp1252
Language: en
Country: US
--></g></svg>