<?xml version="1.0" encoding="UTF-8" standalone="no"?><svg xmlns="http://www.w3.org/2000/svg" xmlns:xlink="http://www.w3.org/1999/xlink" contentScriptType="application/ecmascript" contentStyleType="text/css" height="630px" preserveAspectRatio="none" style="width:269px;height:630px;" version="1.1" viewBox="0 0 269 630" width="269px" zoomAndPan="magnify"><defs><filter height="300%" id="fr44isrf67j9o" width="300%" x="-1" y="-1"><feGaussianBlur result="blurOut" stdDeviation="2.0"/><feColorMatrix in="blurOut" result="blurOut2" type="matrix" values="0 0 0 0 0 0 0 0 0 0 0 0 0 0 0 0 0 0 .4 0"/><feOffset dx="4.0" dy="4.0" in="blurOut2" result="blurOut3"/><feBlend in="SourceGraphic" in2="blurOut3" mode="normal"/></filter></defs><g><ellipse cx="167.5" cy="18" fill="#000000" filter="url(#fr44isrf67j9o)" rx="10" ry="10" style="stroke: none; stroke-width: 1.0;"/><rect fill="#FEFECE" filter="url(#fr44isrf67j9o)" height="35.0938" rx="12.5" ry="12.5" style="stroke: #A80036; stroke-width: 1.5;" width="73" x="131" y="69"/><text fill="#000000" font-family="sans-serif" font-size="12" lengthAdjust="spacingAndGlyphs" textLength="53" x="141" y="91.457">rendering</text><polygon fill="#FEFECE" filter="url(#fr44isrf67j9o)" points="167.5,145,179.5,157,167.5,169,155.5,157,167.5,145" style="stroke: #A80036; stroke-width: 1.5;"/><rect fill="#FEFECE" filter="url(#fr44isrf67j9o)" height="35.0938" rx="12.5" ry="12.5" style="stroke: #A80036; stroke-width: 1.5;" width="85" x="82" y="224"/><text fill="#000000" font-family="sans-serif" font-size="12" lengthAdjust="spacingAndGlyphs" textLength="65" x="92" y="246.457">Get bt code.</text><polygon fill="#FEFECE" filter="url(#fr44isrf67j9o)" points="124.5,334,136.5,346,124.5,358,112.5,346,124.5,334" style="stroke: #A80036; stroke-width: 1.5;"/><rect fill="#FEFECE" filter="url(#fr44isrf67j9o)" height="35.0938" rx="12.5" ry="12.5" style="stroke: #A80036; stroke-width: 1.5;" width="101" x="6" y="413"/><text fill="#000000" font-family="sans-serif" font-size="12" lengthAdjust="spacingAndGlyphs" textLength="81" x="16" y="435.457">Append facets.</text><rect fill="#FEFECE" filter="url(#fr44isrf67j9o)" height="35.0938" rx="12.5" ry="12.5" style="stroke: #A80036; stroke-width: 1.5;" width="97" x="9" y="523"/><text fill="#000000" font-family="sans-serif" font-size="12" lengthAdjust="spacingAndGlyphs" textLength="77" x="19" y="545.457">Print full code.</text><ellipse cx="137.5" cy="609" fill="none" filter="url(#fr44isrf67j9o)" rx="10" ry="10" style="stroke: #000000; stroke-width: 1.0;"/><ellipse cx="138" cy="609.5" fill="#000000" rx="6" ry="6" style="stroke: none; stroke-width: 1.0;"/><rect fill="#FEFECE" filter="url(#fr44isrf67j9o)" height="35.0938" rx="12.5" ry="12.5" style="stroke: #A80036; stroke-width: 1.5;" width="91" x="92" y="468"/><text fill="#000000" font-family="sans-serif" font-size="12" lengthAdjust="spacingAndGlyphs" textLength="71" x="102" y="490.457">Print bt code.</text><rect fill="#FEFECE" filter="url(#fr44isrf67j9o)" height="35.0938" rx="12.5" ry="12.5" style="stroke: #A80036; stroke-width: 1.5;" width="118" x="140.5" y="279"/><text fill="#000000" font-family="sans-serif" font-size="12" lengthAdjust="spacingAndGlyphs" textLength="98" x="150.5" y="301.457">Print empty string.</text><!--MD5=[5e68b09e51f16ed7e04472deaafa4394]
link start to rendering--><path d="M167.5,28.247 C167.5,37.427 167.5,51.836 167.5,63.901 " fill="none" id="start-&gt;rendering" style="stroke: #A80036; stroke-width: 1.0;"/><polygon fill="#A80036" points="167.5,68.907,171.5,59.907,167.5,63.907,163.5,59.907,167.5,68.907" style="stroke: #A80036; stroke-width: 1.0;"/><!--MD5=[1cf762ef971607ca8f2f9466ff011d71]
link rendering to #5--><path d="M167.5,104.082 C167.5,114.872 167.5,128.883 167.5,139.63 " fill="none" id="rendering-&gt;#5" style="stroke: #A80036; stroke-width: 1.0;"/><polygon fill="#A80036" points="167.5,144.918,171.5,135.918,167.5,139.918,163.5,135.918,167.5,144.918" style="stroke: #A80036; stroke-width: 1.0;"/><text fill="#000000" font-family="sans-serif" font-size="11" lengthAdjust="spacingAndGlyphs" textLength="46" x="110.2875" y="134.482">Baseterm</text><!--MD5=[5606cf439e9fc05d0292ad9e7411809b]
link #5 to Get bt code.--><path d="M160.977,162.976 C154.107,168.565 143.476,178.269 137.5,189 C132.427,198.109 129.3,209.217 127.388,218.782 " fill="none" id="#5-&gt;Get bt code." style="stroke: #A80036; stroke-width: 1.0;"/><polygon fill="#A80036" points="126.447,223.915,132.0043,215.7838,127.3486,218.997,124.1354,214.3413,126.447,223.915" style="stroke: #A80036; stroke-width: 1.0;"/><text fill="#000000" font-family="sans-serif" font-size="11" lengthAdjust="spacingAndGlyphs" textLength="34" x="138.5" y="201.4189">not null</text><!--MD5=[9baaa31c35f84a3699b0bd86fd161144]
link Get bt code. to #10--><path d="M124.5,259.426 C124.5,278.492 124.5,309.288 124.5,328.273 " fill="none" id="Get bt code.-&gt;#10" style="stroke: #A80036; stroke-width: 1.0;"/><polygon fill="#A80036" points="124.5,333.759,128.5,324.759,124.5,328.759,120.5,324.759,124.5,333.759" style="stroke: #A80036; stroke-width: 1.0;"/><text fill="#000000" font-family="sans-serif" font-size="11" lengthAdjust="spacingAndGlyphs" textLength="33" x="83.8688" y="323.7035">Facets</text><!--MD5=[25a27a2413dd751cf6c3de3ed3481809]
link #10 to Append facets.--><path d="M115.036,349.046 C101.4848,352.505 76.8313,360.873 64.5,378 C58.3772,386.504 56.157,397.854 55.5614,407.734 " fill="none" id="#10-&gt;Append facets." style="stroke: #A80036; stroke-width: 1.0;"/><polygon fill="#A80036" points="55.386,412.744,59.6973,403.8889,55.5603,407.747,51.7021,403.61,55.386,412.744" style="stroke: #A80036; stroke-width: 1.0;"/><text fill="#000000" font-family="sans-serif" font-size="11" lengthAdjust="spacingAndGlyphs" textLength="47" x="65.5" y="390.4189">not empty</text><!--MD5=[68c51cd77230422eaddaf03df74ee71a]
link Append facets. to Print full code.--><path d="M56.6563,448.375 C56.8287,467 57.1069,497.046 57.2963,517.504 " fill="none" id="Append facets.-&gt;Print full code." style="stroke: #A80036; stroke-width: 1.0;"/><polygon fill="#A80036" points="57.3448,522.7435,61.2598,513.7062,57.2977,517.7437,53.2601,513.7816,57.3448,522.7435" style="stroke: #A80036; stroke-width: 1.0;"/><!--MD5=[a8254bc560b39e74fb1583244e3afade]
link Print full code. to end--><path d="M77.6874,558.2808 C92.9913,571.0021 113.472,588.0265 126.062,598.4918 " fill="none" id="Print full code.-&gt;end" style="stroke: #A80036; stroke-width: 1.0;"/><polygon fill="#A80036" points="130.01,601.7737,125.6451,592.9449,126.1647,598.5778,120.5317,599.0974,130.01,601.7737" style="stroke: #A80036; stroke-width: 1.0;"/><!--MD5=[d9a9c8605d6dc846c88d22720a3be85e]
link #10 to Print bt code.--><path d="M125.477,357.335 C127.578,379.56 132.567,432.319 135.414,462.433 " fill="none" id="#10-&gt;Print bt code." style="stroke: #A80036; stroke-width: 1.0;"/><polygon fill="#A80036" points="135.919,467.779,139.0554,458.4429,135.4491,462.8011,131.0908,459.1948,135.919,467.779" style="stroke: #A80036; stroke-width: 1.0;"/><text fill="#000000" font-family="sans-serif" font-size="11" lengthAdjust="spacingAndGlyphs" textLength="29" x="130.5" y="390.4189">Empty</text><!--MD5=[b56f78c17ad18cb7b2ffe7801309a1ba]
link Print bt code. to end--><path d="M137.5,503.139 C137.5,527.105 137.5,570.942 137.5,593.5959 " fill="none" id="Print bt code.-&gt;end" style="stroke: #A80036; stroke-width: 1.0;"/><polygon fill="#A80036" points="137.5,598.874,141.5,589.874,137.5,593.874,133.5,589.874,137.5,598.874" style="stroke: #A80036; stroke-width: 1.0;"/><!--MD5=[1f8ecb3589b7dfdac5adaf65287c710b]
link #5 to Print empty string.--><path d="M169.6,167.022 C174.594,188.484 187.299,243.073 194.436,273.74 " fill="none" id="#5-&gt;Print empty string." style="stroke: #A80036; stroke-width: 1.0;"/><polygon fill="#A80036" points="195.616,278.812,197.4728,269.1398,194.4831,273.942,189.6809,270.9523,195.616,278.812" style="stroke: #A80036; stroke-width: 1.0;"/><text fill="#000000" font-family="sans-serif" font-size="11" lengthAdjust="spacingAndGlyphs" textLength="16" x="179.5" y="201.4189">null</text><!--MD5=[c36a578e6a2ed5df3541209b5e13a81a]
link Print empty string. to end--><path d="M199.5,314.178 C199.5,331.691 199.5,360.031 199.5,384.5 C199.5,384.5 199.5,384.5 199.5,541.5 C199.5,569.779 169.135,591.0461 150.905,601.2657 " fill="none" id="Print empty string.-&gt;end" style="stroke: #A80036; stroke-width: 1.0;"/><polygon fill="#A80036" points="146.121,603.8518,155.9403,603.0893,150.5191,601.4735,152.135,596.0523,146.121,603.8518" style="stroke: #A80036; stroke-width: 1.0;"/><!--MD5=[efb647b08c33be8ec047e5c390a4260c]
@startuml "code-component"
(*) - -> "rendering"
if "Baseterm" then
    - ->[not null] "Get bt code."
    if "Facets" then
        - -> [not empty] "Append facets."
        - -> "Print full code."
        - -> (*)
    else 
        - -> [Empty] "Print bt code."
        - -> (*)
    endif 
else
    - ->[null] "Print empty string."
    - -> (*)
endif
@enduml

PlantUML version 1.2020.10(Sun May 17 11:35:57 CEST 2020)
(GPL source distribution)
Java Runtime: Java(TM) SE Runtime Environment
JVM: Java HotSpot(TM) Client VM
Java Version: 1.8.0_261-b12
Operating System: Windows 10
Default Encoding: Cp1252
Language: en
Country: US
--></g></svg>